<?xml version="1.0" encoding="UTF-8" standalone="no"?>
<!-- Created with Inkscape (http://www.inkscape.org/) -->

<svg
   width="80.024002"
   height="141.17999"
   viewBox="0 0 21.173017 37.353875"
   version="1.1"
   id="svg5"
   xml:space="preserve"
   inkscape:version="1.2.2 (732a01da63, 2022-12-09)"
   sodipodi:docname="cs_ilustration.svg"
   inkscape:export-filename="..\..\Code\chatbot-app\src\assets\cs_ilustration.svg"
   inkscape:export-xdpi="96"
   inkscape:export-ydpi="96"
   xmlns:inkscape="http://www.inkscape.org/namespaces/inkscape"
   xmlns:sodipodi="http://sodipodi.sourceforge.net/DTD/sodipodi-0.dtd"
   xmlns="http://www.w3.org/2000/svg"
   xmlns:svg="http://www.w3.org/2000/svg"><sodipodi:namedview
     id="namedview7"
     pagecolor="#505050"
     bordercolor="#ffffff"
     borderopacity="1"
     inkscape:showpageshadow="0"
     inkscape:pageopacity="0"
     inkscape:pagecheckerboard="1"
     inkscape:deskcolor="#505050"
     inkscape:document-units="mm"
     showgrid="false"
     showguides="true"
     inkscape:zoom="4.3087087"
     inkscape:cx="28.778924"
     inkscape:cy="83.087538"
     inkscape:window-width="1920"
     inkscape:window-height="1009"
     inkscape:window-x="-8"
     inkscape:window-y="-8"
     inkscape:window-maximized="1"
     inkscape:current-layer="layer1" /><defs
     id="defs2"><inkscape:path-effect
       effect="fillet_chamfer"
       id="path-effect25582"
       is_visible="true"
       lpeversion="1"
       nodesatellites_param="F,0,0,1,0,4.7625,0,1 @ F,0,0,1,0,4.7625,0,1 @ F,0,0,1,0,4.7625,0,1 @ F,0,0,1,0,4.7625,0,1"
       unit="px"
       method="auto"
       mode="F"
       radius="18"
       chamfer_steps="1"
       flexible="false"
       use_knot_distance="true"
       apply_no_radius="true"
       apply_with_radius="true"
       only_selected="false"
       hide_knots="false" /><inkscape:path-effect
       effect="fillet_chamfer"
       id="path-effect17861"
       is_visible="true"
       lpeversion="1"
       nodesatellites_param="F,0,0,1,0,1.0583333,0,1 @ F,0,0,1,0,1.0583333,0,1 @ F,0,0,1,0,1.0583333,0,1 @ F,0,0,1,0,1.0583333,0,1"
       unit="px"
       method="auto"
       mode="F"
       radius="4"
       chamfer_steps="1"
       flexible="false"
       use_knot_distance="true"
       apply_no_radius="true"
       apply_with_radius="true"
       only_selected="false"
       hide_knots="false" /><inkscape:path-effect
       effect="fillet_chamfer"
       id="path-effect15827"
       is_visible="true"
       lpeversion="1"
       nodesatellites_param="F,0,0,1,0,0.96715461,0,1 @ F,0,0,1,0,0,0,1 @ F,0,0,1,0,0,0,1 @ F,0,0,1,0,1.0132096,0,1"
       unit="px"
       method="auto"
       mode="F"
       radius="0"
       chamfer_steps="1"
       flexible="false"
       use_knot_distance="true"
       apply_no_radius="true"
       apply_with_radius="true"
       only_selected="false"
       hide_knots="false" /><inkscape:path-effect
       effect="fillet_chamfer"
       id="path-effect13547"
       is_visible="true"
       lpeversion="1"
       nodesatellites_param="F,0,0,1,0,1.5428419,0,10 @ F,0,0,1,0,1.5121386,0,10 @ F,0,0,1,0,1.5121386,0,10 @ F,0,0,1,0,1.5965727,0,10"
       unit="px"
       method="auto"
       mode="F"
       radius="0"
       chamfer_steps="11"
       flexible="false"
       use_knot_distance="true"
       apply_no_radius="true"
       apply_with_radius="true"
       only_selected="false"
       hide_knots="false" /><inkscape:path-effect
       effect="fillet_chamfer"
       id="path-effect2029"
       is_visible="true"
       lpeversion="1"
       nodesatellites_param="F,0,0,1,0,1.8520833,0,1 @ F,0,0,1,0,1.8520833,0,1 @ F,0,0,1,0,1.8520833,0,1 @ F,0,0,1,0,1.8520833,0,1"
       unit="px"
       method="auto"
       mode="F"
       radius="7"
       chamfer_steps="1"
       flexible="false"
       use_knot_distance="true"
       apply_no_radius="true"
       apply_with_radius="true"
       only_selected="false"
       hide_knots="false" /></defs><g
     inkscape:label="Layer 1"
     inkscape:groupmode="layer"
     id="layer1"><g
       id="g416"
       transform="matrix(0.96876559,0,0,0.96876559,0.33066337,0.5833631)"><g
         id="g29209"
         transform="matrix(0.32963852,0,0,0.32963852,-1.5366074,-0.7969939)"><path
           style="fill:#b8d8f3;fill-opacity:1;stroke:none;stroke-width:0.29934;stroke-linecap:round;stroke-linejoin:round;stroke-miterlimit:4.4;stroke-opacity:1;paint-order:markers fill stroke"
           id="rect25580"
           width="64.231346"
           height="34.387714"
           x="4.6613274"
           y="2.4177749"
           inkscape:path-effect="#path-effect25582"
           d="M 9.4238274,2.4177749 H 64.130173 a 4.7625,4.7625 45 0 1 4.7625,4.7625 V 32.042989 a 4.7625,4.7625 135 0 1 -4.7625,4.7625 H 9.4238274 a 4.7625,4.7625 45 0 1 -4.7625,-4.7625 V 7.1802749 a 4.7625,4.7625 135 0 1 4.7625,-4.7625 z"
           sodipodi:type="rect" /><g
           id="g25614"
           transform="translate(0,4.7625002)"><path
             style="fill:#fab59f;fill-opacity:1;stroke:none;stroke-width:0.357416;stroke-linecap:round;stroke-linejoin:round;stroke-miterlimit:4.4;stroke-opacity:1;paint-order:markers fill stroke"
             id="path19339"
             sodipodi:type="arc"
             sodipodi:cx="49.702217"
             sodipodi:cy="50.597195"
             sodipodi:rx="3.8225634"
             sodipodi:ry="3.8225634"
             sodipodi:start="3.1231969"
             sodipodi:end="3.1206487"
             sodipodi:open="true"
             sodipodi:arc-type="arc"
             d="m 45.8803,50.66751 a 3.8225634,3.8225634 0 0 1 3.749167,-3.892186 3.8225634,3.8225634 0 0 1 3.894574,3.746686 3.8225634,3.8225634 0 0 1 -3.744205,3.89696 3.8225634,3.8225634 0 0 1 -3.899344,-3.741722" /><path
             style="fill:#f3cab2;fill-opacity:1;stroke:none;stroke-width:0.235407;stroke-linecap:round;stroke-linejoin:round;stroke-miterlimit:4.4;stroke-opacity:1;paint-order:markers fill stroke"
             id="path19025"
             sodipodi:type="arc"
             sodipodi:cx="49.702217"
             sodipodi:cy="50.597195"
             sodipodi:rx="2.5176723"
             sodipodi:ry="2.5176723"
             sodipodi:start="3.1231969"
             sodipodi:end="3.1206487"
             sodipodi:open="true"
             sodipodi:arc-type="arc"
             d="m 47.184971,50.643507 a 2.5176723,2.5176723 0 0 1 2.469331,-2.563529 2.5176723,2.5176723 0 0 1 2.5651,2.467698 2.5176723,2.5176723 0 0 1 -2.466062,2.566672 2.5176723,2.5176723 0 0 1 -2.568243,-2.464427" /><path
             style="fill:#000000;fill-opacity:1;stroke:none;stroke-width:0.277649;stroke-linecap:round;stroke-linejoin:round;stroke-miterlimit:4.4;stroke-opacity:1;paint-order:markers fill stroke"
             id="path15771"
             sodipodi:type="arc"
             sodipodi:cx="23.499023"
             sodipodi:cy="50.653259"
             sodipodi:rx="4.2907887"
             sodipodi:ry="4.2907887"
             sodipodi:start="3.1231969"
             sodipodi:end="3.1206487"
             sodipodi:open="true"
             sodipodi:arc-type="arc"
             d="m 19.208961,50.732187 a 4.2907887,4.2907887 0 0 1 4.208402,-4.368939 4.2907887,4.2907887 0 0 1 4.371619,4.205618 4.2907887,4.2907887 0 0 1 -4.202832,4.374297 4.2907887,4.2907887 0 0 1 -4.376974,-4.200044" /><path
             style="fill:#89b4fe;fill-opacity:1;stroke:none;stroke-width:0.344973;stroke-linecap:round;stroke-linejoin:round;stroke-miterlimit:4.4;stroke-opacity:1;paint-order:markers fill stroke"
             id="rect15825"
             width="3.2565789"
             height="9.530921"
             x="22.00666"
             y="45.837734"
             sodipodi:type="rect"
             d="m 22.973815,45.837734 h 2.289424 v 9.530921 H 23.01987 a 1.0132096,1.0132096 45 0 1 -1.01321,-1.013209 v -7.550557 a 0.96715461,0.96715461 135 0 1 0.967155,-0.967155 z"
             inkscape:path-effect="#path-effect15827" /><path
             style="fill:#f3cab2;fill-opacity:1;stroke:none;stroke-width:0.3;stroke-linecap:round;stroke-linejoin:round;stroke-miterlimit:4.4;paint-order:markers fill stroke"
             d="m 30.421155,64.678598 v 2.52928 c 0,0 6.00296,5.5796 6.05724,5.5796 0.0543,0 6.74112,-7.45756 6.74112,-7.45756 l -0.1951,-1.14404 -12.26598,-0.10746 z"
             id="path10454" /><path
             style="fill:#1d54c2;fill-opacity:1;stroke:none;stroke-width:0.3;stroke-linecap:round;stroke-linejoin:round;stroke-miterlimit:4.4;paint-order:markers fill stroke"
             d="m 24.914328,69.448549 c 0,0 -7.487357,3.152334 -10.570257,9.795755 L 8.5256507,98.696933 c 0,0 -1.82369,5.210537 3.9078903,7.902637 l 48.501318,0.47763 c 0,0 5.297368,-1.12894 5.427631,-6.90395 L 60.227581,79.252482 c 0,0 -1.965012,-5.802928 -11.605855,-9.671546 -4.030964,0.588533 -8.245175,2.967717 -12.147199,3.031959 -3.962512,0.06524 -7.611715,-2.196362 -11.560199,-3.164346 z"
             id="path2154"
             sodipodi:nodetypes="ccccccccsc" /><path
             style="fill:#1547ab;fill-opacity:1;stroke:none;stroke-width:0.3;stroke-linecap:round;stroke-linejoin:round;stroke-miterlimit:4.4;paint-order:markers fill stroke"
             d="m 43.209917,65.319402 c 0,0 2.80744,0.746475 5.47863,4.185246 l -0.46055,9.149591 -3.10104,1.074616 1.75009,1.627276 h -4.08354 c 0,0 2.11853,-11.114602 1.32024,-14.70689 z"
             id="path2555"
             sodipodi:nodetypes="cccccccc" /><path
             style="fill:#e6e6e6;fill-opacity:1;stroke:none;stroke-width:0.3;stroke-linecap:round;stroke-linejoin:round;stroke-miterlimit:4.4;paint-order:markers fill stroke"
             d="m 30.365292,65.424979 -1.188431,1.244254 c 0,0 -0.52196,8.903962 1.35094,14.676189 h 12.312031 c 0,0 1.995716,-8.658337 1.535166,-14.645484 l -1.174402,-1.341352 c 0,0 -3.983758,2.323858 -5.303998,2.600188 l -1.10532,2.947519 -1.16673,-2.916816 c 0,0 -3.171436,-1.152145 -5.259256,-2.564498 z"
             id="path2611"
             sodipodi:nodetypes="cccccccccc" /><path
             style="fill:#1547ab;fill-opacity:1;stroke:none;stroke-width:0.3;stroke-linecap:round;stroke-linejoin:round;stroke-miterlimit:4.4;paint-order:markers fill stroke"
             d="m 30.413955,65.369644 c 0,0 -2.870765,0.614067 -5.541955,4.052838 l 0.46055,9.149591 3.10104,1.074616 -1.75009,1.627276 3.953051,0.05373 c 0,0 -2.126206,-11.060871 -1.327916,-14.653159 z"
             id="path3768"
             sodipodi:nodetypes="cccccccc" /><path
             style="fill:#000000;fill-opacity:1;stroke:none;stroke-width:0.3;stroke-linecap:round;stroke-linejoin:round;stroke-miterlimit:4.4;paint-order:markers fill stroke"
             d="m 33.530921,81.393973 c 0,0 0.808716,-4.868584 1.937666,-6.692269 l 2.556417,0.0054 c 0,0 2.040782,4.819738 1.997362,6.665133 z"
             id="path6127"
             sodipodi:nodetypes="ccccc" /><path
             style="fill:#000000;fill-opacity:1;stroke:none;stroke-width:0.3;stroke-linecap:round;stroke-linejoin:round;stroke-miterlimit:4.4;paint-order:markers fill stroke"
             d="m 35.4659,74.718854 h 2.54838 l 1.95688,-3.50161 h -6.38832 z"
             id="path6252" /><path
             style="fill:#b3b3b3;fill-opacity:1;stroke:none;stroke-width:0.3;stroke-linecap:round;stroke-linejoin:round;stroke-miterlimit:4.4;paint-order:markers fill stroke"
             d="m 30.394277,65.376333 c 0,0 -1.169209,1.271395 -1.092449,1.302097 0.0768,0.0307 -0.389537,3.178726 3.755413,6.709607 l 2.571397,-5.403613 c 0,0 -1.409842,-0.542373 -2.988712,-1.329396 -0.503624,-0.251042 -0.957905,-0.476652 -1.46334,-0.774893 -0.263016,-0.155197 -0.548934,-0.313327 -0.782309,-0.503802 z"
             id="path3824"
             sodipodi:nodetypes="ccccssc" /><path
             style="fill:#b3b3b3;fill-opacity:1;stroke:none;stroke-width:0.3;stroke-linecap:round;stroke-linejoin:round;stroke-miterlimit:4.4;paint-order:markers fill stroke"
             d="m 43.206355,65.314691 c 0,0 1.241574,1.372056 1.164814,1.402758 -0.0768,0.0307 0.253301,3.078009 -3.891649,6.60889 l -2.586364,-5.365444 c 0,0 1.60367,-0.584155 3.340498,-1.5268 0.390179,-0.211766 0.647837,-0.350399 1.05279,-0.584987 0.262814,-0.152248 0.697793,-0.35313 0.919911,-0.534417 z"
             id="path7128"
             sodipodi:nodetypes="ccccssc" /><path
             style="fill:#fcfdff;fill-opacity:1;stroke:none;stroke-width:0.3;stroke-linecap:round;stroke-linejoin:round;stroke-miterlimit:4.4;paint-order:markers fill stroke"
             d="m 12.484759,109.34569 h 48.511245 c 0,0 0.445199,1.18208 -0.859692,1.62728 H 13.451914 c 0,0 -0.913425,-0.23028 -0.967155,-1.62728 z"
             id="path415" /><path
             style="fill:#e1e9fe;fill-opacity:1;stroke:none;stroke-width:0.301745;stroke-linecap:round;stroke-linejoin:round;stroke-miterlimit:4.4;paint-order:markers fill stroke"
             id="rect1299"
             width="48.584"
             height="28.049999"
             x="12.485001"
             y="81.280998"
             sodipodi:type="rect"
             d="M 14.337084,81.280998 H 59.216917 A 1.8520833,1.8520833 45 0 1 61.069,83.133082 V 107.47891 A 1.8520833,1.8520833 135 0 1 59.216917,109.331 H 14.337084 a 1.8520833,1.8520833 45 0 1 -1.852083,-1.85209 V 83.133082 a 1.8520833,1.8520833 135 0 1 1.852083,-1.852084 z"
             inkscape:path-effect="#path-effect2029" /><path
             style="fill:#fadac9;fill-opacity:1;stroke:none;stroke-width:0.3;stroke-linecap:round;stroke-linejoin:round;stroke-miterlimit:4.4;paint-order:markers fill stroke"
             d="m 24.12528,52.259193 c 0,0 -1.01321,4.298466 3.00893,9.640843 4.02213,5.342379 11.97429,4.022135 11.97429,4.022135 0,0 10.224205,-1.166725 10.592646,-13.570868 0,0 -1.443706,-1.431339 -1.009495,-7.184629 0.06513,-0.130263 0.423676,-1.20262 0.423676,-1.20262 l -2.67984,-4.391885 -11.745387,0.325658 -9.05329,0.673027 z"
             id="path8253"
             sodipodi:nodetypes="cscccccccc" /><path
             style="fill:#000000;fill-opacity:1;stroke:none;stroke-width:0.3;stroke-linecap:round;stroke-linejoin:round;stroke-miterlimit:4.4;paint-order:markers fill stroke"
             d="m 24.11628,52.272234 c 0,0 -1.71752,-7.581859 -0.82712,-11.38907 0,0 -1.8115,-0.399142 -1.93431,-2.947518 h 2.794 c 0,0 -2.73259,0.06141 -2.794,-4.851125 l 3.77651,0.798287 c 0,0 -2.48697,-1.504463 -1.01321,-6.447698 0,0 21.430918,1.75009 25.23813,9.79436 0,0 4.022135,5.664763 0.36844,15.182792 0,0 -1.842199,-1.642628 -1.443056,-6.954302 l 0.614066,-1.412353 -1.350946,-2.456266 c 0,0 -3.254552,4.144948 -8.658334,4.482685 l 1.64564,-2.815876 c 0,0 -4.75461,2.105921 -11.18092,0.80329 l 1.56315,-1.21579 c 0,0 -2.14934,-0.282236 -4.51579,-1.085526 -0.0868,0.108553 -0.89013,2.670395 -0.89013,2.670395 l 0.58619,1.411184 c 0,0 -0.18984,5.168681 -1.97831,6.432531 z"
             id="path7243"
             sodipodi:nodetypes="cccccccccccccccccccc" /><path
             style="fill:#fcc6a0;fill-opacity:1;stroke:none;stroke-width:0.3;stroke-linecap:round;stroke-linejoin:round;stroke-miterlimit:4.4;paint-order:markers fill stroke"
             d="m 30.494178,56.435 h 12.711176 c 0,0 0.568011,4.528738 -5.756873,6.033201 0,0 -6.324885,0.690827 -6.954303,-6.033201 z"
             id="path8930" /><path
             style="fill:#d3e4fe;fill-opacity:1;stroke:none;stroke-width:0.281973;stroke-linecap:round;stroke-linejoin:round;stroke-miterlimit:4.4;paint-order:markers fill stroke"
             d="m 30.808981,56.677817 h 12.082221 c 0,0 0.539907,4.209093 -5.47202,5.60737 0,0 -6.011927,0.642068 -6.610201,-5.60737 z"
             id="path9484" /><path
             style="fill:#fcfdff;fill-opacity:1;stroke:none;stroke-width:0.300004;stroke-linecap:round;stroke-linejoin:round;stroke-miterlimit:4.4;paint-order:markers fill stroke"
             d="m 31.593768,59.428653 10.562158,-0.02171 c 0.17564,-0.309226 0.401489,-0.607438 0.634197,-1.492677 -0.02302,-0.01644 -6.061591,-2.78677 -11.766859,0.05954 0.15809,0.507861 0.313766,1.017446 0.570504,1.454845 z"
             id="path10368"
             sodipodi:nodetypes="cccccc" /><path
             style="fill:#000000;fill-opacity:1;stroke:none;stroke-width:0.3;stroke-linecap:round;stroke-linejoin:round;stroke-miterlimit:4.4;paint-order:markers fill stroke"
             d="m 31.596688,59.425955 10.56546,-0.019 c 0,0 -0.285624,0.493292 -0.937671,1.066547 -0.240009,0.211007 -0.479749,0.43376 -0.86744,0.668126 -0.791404,0.478418 -1.915696,0.953663 -2.930991,1.115031 -0.122628,0.01949 0.05119,0.01371 -0.07549,0.02573 -0.239614,0.02272 -0.567585,-0.04871 -0.794469,-0.04833 -2.882759,0.0048 -4.536351,-1.765204 -4.959396,-2.8081 z"
             id="path10439"
             sodipodi:nodetypes="ccssssscc" /><path
             style="fill:#000000;fill-opacity:1;stroke:none;stroke-width:0.3;stroke-linecap:round;stroke-linejoin:round;stroke-miterlimit:4.4;paint-order:markers fill stroke"
             d="m 35.783473,61.742761 c 0,0 -0.771421,0.05757 -0.775258,0.08827 -0.0038,0.0307 0.01151,0.226438 0.01151,0.226438 0,0 1.00411,0.243806 1.612006,0.241091 0,0 0.59288,0.106243 1.379653,-0.162411 0.786773,-0.268654 -1.327919,-0.466307 -1.327919,-0.466307 z"
             id="path10445" /><path
             style="fill:#fab59f;fill-opacity:1;stroke:none;stroke-width:0.306561;stroke-linecap:round;stroke-linejoin:round;stroke-miterlimit:4.4;paint-order:markers fill stroke"
             id="rect13545"
             width="3.2037132"
             height="6.5960493"
             x="35.254494"
             y="48.404728"
             sodipodi:type="rect"
             d="m 36.797336,48.404728 h 0.148732 a 1.5121386,1.5121386 45 0 1 1.512139,1.512139 v 3.571772 a 1.5121386,1.5121386 135 0 1 -1.512139,1.512138 h -0.095 A 1.5965727,1.5965727 45 0 1 35.254494,53.404205 V 49.94757 a 1.5428419,1.5428419 135 0 1 1.542842,-1.542842 z"
             inkscape:path-effect="#path-effect13547" /><path
             style="fill:#000000;fill-opacity:1;stroke:none;stroke-width:0.3;stroke-linecap:round;stroke-linejoin:round;stroke-miterlimit:4.4;paint-order:markers fill stroke"
             d="m 27.675097,46.862497 c 0,0 1.183225,-2.214472 6.274342,-1.943092 0,0 1.150657,0.673027 -0.119409,1.454606 0,0 -3.397697,-0.401645 -5.036842,1.487171 0,0 -1.552301,0.47763 -1.118091,-0.998685 z"
             id="path15056" /><path
             style="fill:#000000;fill-opacity:1;stroke:none;stroke-width:0.3;stroke-linecap:round;stroke-linejoin:round;stroke-miterlimit:4.4;stroke-opacity:1;paint-order:markers fill stroke"
             d="m 29.012436,51.423893 c 0,0 -0.214921,-2.256695 2.387185,-2.479294 2.602105,-0.222599 2.747946,2.463943 2.747946,2.463943 0,0 -0.445198,0.913423 -1.189754,0.02302 0,0 -0.314709,-1.550511 -1.504463,-1.358615 -1.189754,0.191895 -1.327919,1.34327 -1.327919,1.34327 0,0 -0.429846,0.898073 -1.112995,0.0077 z"
             id="path15058" /><path
             style="fill:#000000;fill-opacity:1;stroke:none;stroke-width:0.3;stroke-linecap:round;stroke-linejoin:round;stroke-miterlimit:4.4;paint-order:markers fill stroke"
             d="m 46.027435,46.868529 c 0,0 -1.183225,-2.214472 -6.274342,-1.943092 0,0 -1.150657,0.673027 0.119409,1.454606 0,0 3.397697,-0.401645 5.036842,1.487171 0,0 1.552301,0.47763 1.118091,-0.998685 z"
             id="path15532" /><path
             style="fill:#000000;fill-opacity:1;stroke:none;stroke-width:0.3;stroke-linecap:round;stroke-linejoin:round;stroke-miterlimit:4.4;stroke-opacity:1;paint-order:markers fill stroke"
             d="m 44.690096,51.429925 c 0,0 0.214921,-2.256695 -2.387185,-2.479294 -2.602105,-0.222599 -2.747946,2.463943 -2.747946,2.463943 0,0 0.445198,0.913423 1.189754,0.02302 0,0 0.314709,-1.550511 1.504463,-1.358615 1.189754,0.191895 1.327919,1.34327 1.327919,1.34327 0,0 0.429846,0.898073 1.112995,0.0077 z"
             id="path15534" /><path
             style="fill:#fcfdff;fill-opacity:1;stroke:none;stroke-width:0.3;stroke-linecap:round;stroke-linejoin:round;stroke-miterlimit:4.4;stroke-opacity:1;paint-order:markers fill stroke"
             d="m 21.613637,53.809976 c 0,0 0.49893,-1.059265 1.13603,-0.04606 0,0 0.83666,6.961984 11.030158,7.39183 l 1.22813,0.675473 -1.35094,0.36844 c 0,0 -10.945738,0.107461 -12.043378,-8.389683 z"
             id="path16784" /><path
             style="fill:#ff2b37;fill-opacity:1;stroke:none;stroke-width:0.281587;stroke-linecap:round;stroke-linejoin:round;stroke-miterlimit:4.4;stroke-opacity:1;paint-order:markers fill stroke"
             id="rect17859"
             width="3.8839698"
             height="1.9957157"
             x="33.337276"
             y="60.626335"
             sodipodi:type="rect"
             d="m 34.39561,60.626335 h 1.767303 a 1.0583333,1.0583333 45 0 1 1.058333,1.058333 0.99968875,0.99968875 138.46818 0 1 -1.058333,0.937383 H 34.39561 a 1.0583333,1.0583333 45 0 1 -1.058334,-1.058333 0.99968875,0.99968875 138.46818 0 1 1.058334,-0.937383 z"
             inkscape:path-effect="#path-effect17861" /><path
             d="m 28.087409,97.344418 c -0.188274,0 -0.34229,0.02888 -0.34229,-0.225226 l -0.0028,-0.190863 0.51825,-0.10433 c 0,0.142837 0.03301,0.520422 -0.173165,0.520422 z m 9.730491,-4.628943 0.15122,0.04667 0.298301,-1.025733 z m -2.229597,0.04533 0.126482,-0.04399 0.02194,-0.0028 -0.411018,-0.902148 0.261142,0.947483 z m -1.008966,0.635728 0.227711,-0.185378 -2.13955,-2.194303 1.912045,2.380612 z m 4.202297,-0.210115 0.199349,0.197694 1.900661,-2.372745 c -0.06459,0.04399 -0.449522,0.451799 -0.523736,0.535534 -0.167678,0.192209 -0.349122,0.365268 -0.532014,0.546505 l -1.044675,1.093012 z m -5.683555,6.583011 c 0.126482,0.02888 0.134557,0.0621 0.134557,0.21146 v 0.654981 c 0,0.14966 -0.0083,0.18258 -0.134557,0.21146 v 0.1181 l 0.250172,-0.0219 0.07701,-0.004 0.250171,0.0234 v -0.11552 c -0.05775,-0.0138 -0.115514,-0.011 -0.115514,-0.0769 v -0.923984 c 0,-0.06593 0.05775,-0.06313 0.115514,-0.0769 v -0.118098 l -0.211666,0.02194 a 3.1113555,3.1113555 0 0 1 -0.365684,-0.01924 v 0.115298 z m 3.545041,-7.218738 h 0.28174 l -0.128138,-2.944092 -0.153911,2.945437 z m -9.268858,7.180337 c 0,0.109821 0.134558,-0.0055 0.134558,0.173061 v 0.808581 c 0,0.0962 -0.04534,0.12772 -0.134558,0.13456 v 0.11944 l 0.327179,-0.0219 0.01925,-0.004 0.250172,0.0234 v -0.11531 c -0.06593,-0.005 -0.134557,-0.0274 -0.134557,-0.0962 v -0.885589 c 0,-0.06862 0.06873,-0.09067 0.134557,-0.09616 v -0.119444 l -0.346431,0.02339 c -0.109929,0.0083 -0.1388,-0.01924 -0.250171,-0.01924 v 0.0769 z m 13.565758,0 c 0,0.120789 0.134557,-0.03292 0.134557,0.21146 v 0.770182 c 0,0.0962 -0.04533,0.12772 -0.134557,0.13456 v 0.11944 l 0.307926,-0.0234 c 0.115514,-0.01 0.167678,0.0192 0.288676,0.0192 v -0.1153 c -0.06593,-0.005 -0.134558,-0.0274 -0.134558,-0.0962 v -0.847081 c 0,-0.09616 0.04533,-0.12772 0.134558,-0.134557 v -0.119444 l -0.346431,0.02339 c -0.10857,0.0083 -0.1388,-0.01925 -0.250171,-0.01925 z m 8.170568,1.000992 v -0.0769 l -0.134558,-0.0192 c -0.06459,0.0975 -0.0414,0.17306 -0.211668,0.17306 h -0.07701 c -0.0591,0 -0.115514,-0.0178 -0.115514,-0.0769 v -0.885687 c 0,-0.06593 0.07152,-0.07141 0.134558,-0.0769 v -0.119447 l -0.288676,0.02194 -0.05775,0.0042 -0.250171,-0.02339 v 0.115299 c 0.05775,0.01377 0.115514,0.01104 0.115514,0.0769 v 0.924195 c 0,0.0631 -0.05497,0.0714 -0.115514,0.0769 v 0.1151 h 0.905875 c 0.09316,0 0.03716,-0.1387 0.09625,-0.23072 z m -7.476361,-1.000994 c 0,0.06313 0.05496,0.07142 0.115514,0.0769 a 6.4020847,6.4020847 0 0 0 0.244685,0.602814 c 0.03985,0.0975 0.211668,0.57124 0.294161,0.57124 h 0.115514 c 0.0028,-0.0384 0.232265,-0.57124 0.266628,-0.63852 0.07701,-0.15526 0.163538,-0.558926 0.350572,-0.573933 v -0.119551 l -0.307927,0.02339 c -0.07421,0.0069 -0.06739,-0.01781 -0.153912,-0.01925 v 0.115299 c 0.04265,0.0042 0.134557,0.0178 0.134557,0.05766 a 3.2513975,3.2513975 0 0 1 -0.308237,0.751035 c -0.03023,-0.0646 -0.288675,-0.719569 -0.288675,-0.731886 0,-0.06593 0.05775,-0.06313 0.115514,-0.0769 v -0.11799 l -0.211668,0.02194 -0.115513,0.0042 -0.250172,-0.02339 v 0.0769 z m -13.566483,0.0384 c 0.175958,0.0414 0.129174,0.118098 0.197901,0.263624 0.05175,0.10982 0.09212,0.20701 0.140249,0.32087 0.03851,0.092 0.233714,0.62755 0.296956,0.62755 h 0.07701 c 0.08932,0 0.28733,-0.53554 0.327179,-0.63573 0.04398,-0.10982 0.08932,-0.22657 0.141594,-0.34053 a 0.95814428,0.95814428 0 0 1 0.08115,-0.16892 c 0.0591,-0.08281 0.124208,-0.05082 0.124208,-0.126375 0,-0.111274 -0.119551,-0.03157 -0.192415,-0.03436 l -0.26911,-0.02339 v 0.134557 h 0.07701 c 0.044,0 0.05775,0.01377 0.05775,0.05766 v 0.01957 a 3.1286407,3.1286407 0 0 1 -0.307928,0.693478 c -0.02608,-0.055 -0.288675,-0.707141 -0.288675,-0.712627 0,-0.06593 0.05775,-0.06313 0.115514,-0.0769 v -0.117896 l -0.250171,0.02194 -0.07701,0.0042 -0.251206,-0.02339 v 0.115312 z m 5.74162,0.0384 c -0.02339,0.03436 -0.0385,0.03436 -0.0385,0.0769 v 0.05766 h 0.153912 c 0.0179,-0.0741 0.044,-0.115298 0.134558,-0.115298 h 0.192415 v 0.885582 c 0,0.0975 -0.03851,0.13322 -0.134558,0.13456 v 0.11945 l 0.365683,-0.0234 c 0.109928,-0.008 0.138799,0.0192 0.250171,0.0192 v -0.1153 h -0.05775 c -0.07556,0 -0.09625,-0.0947 -0.09625,-0.17306 v -0.847085 h 0.23092 c 0.09212,0 0.04264,0.115299 0.134557,0.115299 a 0.28494882,0.28494882 0 0 0 0.09625,-0.01925 v -0.05766 c 0,-0.111261 0.08663,-0.249964 -0.01924,-0.249964 h -0.03851 c -0.06739,0 -0.02888,0.0384 -0.09625,0.0384 h -0.80889 c -0.08385,0 -0.07008,-0.0384 -0.153913,-0.0384 h -0.0385 c -0.08663,0 -0.07701,0.10433 -0.07701,0.192208 z m 11.830604,0.134557 v 0.192207 c 0,0.19914 0.540191,0.36662 0.540191,0.48057 v 0.0769 c 0,0.10579 -0.100292,0.15381 -0.192415,0.15381 h -0.03851 c -0.119551,0 -0.18279,-0.12079 -0.192415,-0.23071 h -0.134553 v 0.34333 l 0.365682,0.0234 h 0.115514 c 0.175959,0 0.403669,-0.18538 0.403669,-0.32677 v -0.13456 c 0,-0.32821 -0.559443,-0.33235 -0.559443,-0.578072 v -0.01924 a 0.11934107,0.11934107 0 0 1 0.134557,-0.134558 h 0.03851 c 0.163537,0 0.162192,0.06313 0.192415,0.192208 h 0.07701 c 0.03157,0 0.05775,-0.01104 0.05775,-0.0384 0,-0.339186 -0.03436,-0.307618 -0.384935,-0.307618 -0.206182,0 -0.423336,0.115299 -0.423336,0.307618 z m -13.585011,0.0384 v 0.0384 c 0,0.38452 0.558099,0.44901 0.558099,0.59733 v 0.0769 c 0,0.1153 -0.07836,0.15381 -0.192415,0.15381 h -0.07701 c -0.08281,0 -0.137454,-0.1387 -0.153912,-0.21146 h -0.134557 l -0.0042,0.0769 0.02339,0.24996 a 0.28494882,0.28494882 0 0 0 0.09625,0.0192 h 0.365682 a 0.40253032,0.40253032 0 0 0 0.40367,-0.42292 v -0.0577 c 0,-0.30213 -0.558099,-0.3131 -0.558099,-0.558821 V 99.9231 a 0.11934107,0.11934107 0 0 1 0.134558,-0.13457 h 0.03851 a 0.22439849,0.22439849 0 0 1 0.169023,0.059 l 0.02474,0.134558 h 0.07701 c 0.03023,0 0.06044,-0.01238 0.0621,-0.0384 l -0.02474,-0.28557 -0.210735,-0.02194 h -0.09625 c -0.258761,0 -0.500342,0.113858 -0.500342,0.346015 z m 4.431664,0.01925 v 0.0384 c 0,0.39001 0.559443,0.39135 0.559443,0.61658 v 0.0577 c 0,0.0621 -0.0976,0.13456 -0.173163,0.13456 h -0.09625 c -0.153911,0 -0.08663,-0.23072 -0.211666,-0.23072 h -0.01925 c -0.044,0 -0.05775,0.0138 -0.05775,0.0577 v 0.28557 l 0.288674,0.0219 h 0.173165 a 0.42147169,0.42147169 0 0 0 0.423334,-0.40367 v -0.0769 c 0,-0.25948 -0.558098,-0.36392 -0.558098,-0.520312 v -0.09605 c 0,-0.07556 0.09481,-0.09616 0.173163,-0.09616 h 0.03851 c 0.184238,0 0.07245,0.192208 0.192416,0.192208 h 0.0385 c 0.104438,0 0.03851,-0.217361 0.03851,-0.320865 l -0.365682,-0.02474 c -0.219949,-0.01646 -0.442588,0.146977 -0.442588,0.365159 z m 10.699812,0.0796 0.03301,-0.003 0.127828,0.34157 -0.291366,0.001 z M 46.583,100.90487 v 0.0577 h 0.403669 l -0.0013,-0.11126 -0.103509,-0.0261 0.08518,-0.24717 h 0.403669 c 0.07421,0 0.129174,0.18258 0.134557,0.24996 -0.04947,0.011 -0.09625,0.0165 -0.09625,0.0769 v 0.0604 l 0.250171,-0.0219 0.07701,-0.004 0.250172,0.0234 v -0.0769 c 0,-0.0932 -0.0621,-0.0219 -0.131973,-0.1002 a 0.57362381,0.57362381 0 0 1 -0.07008,-0.16064 c -0.05082,-0.11126 -0.08932,-0.21425 -0.141594,-0.32086 -0.03436,-0.0701 -0.270769,-0.61244 -0.273563,-0.65084 h -0.115528 c -0.08519,0 -0.266629,0.53822 -0.323039,0.63852 -0.0564,0.10029 -0.08932,0.22657 -0.145735,0.33639 -0.02474,0.048 -0.05082,0.13041 -0.07008,0.16064 -0.05175,0.0865 -0.136108,0.0207 -0.136108,0.1153 z m -11.157822,-0.48056 c 0.0028,-0.0975 0.08281,-0.32677 0.153912,-0.34602 l 0.119552,0.34467 -0.273564,10e-4 z m 0.115514,-0.751136 c -0.01238,0.149668 -0.211666,0.475086 -0.261142,0.623406 -0.04813,0.14284 -0.08932,0.1977 -0.130628,0.31176 -0.04534,0.12224 -0.0621,0.23485 -0.204836,0.23889 v 0.1153 h 0.403668 v -0.0577 c 0,-0.0646 -0.03436,-0.0563 -0.09625,-0.0577 v -0.0577 c 0,-0.0811 0.05776,-0.12638 0.07701,-0.21146 h 0.403668 c 0.06044,0 0.115514,0.16478 0.115514,0.23071 0,0.0399 -0.03985,0.0357 -0.07701,0.0384 v 0.1181 l 0.288674,-0.0219 0.03851,-0.004 0.250171,0.0234 v -0.11541 c -0.189724,-0.004 -0.289813,-0.40646 -0.356057,-0.56845 -0.0385,-0.092 -0.250171,-0.626201 -0.317552,-0.626201 h -0.0385 a 0.299543,0.299543 0 0 0 -0.09625,0.01925 z m 7.572621,0.09616 0.09625,0.01925 c 0.01511,0.06728 0.03851,0.06459 0.03851,0.134557 v 0.828039 c 0,0.0701 -0.06044,0.0947 -0.134558,0.0962 v 0.11944 l 0.481091,-0.0234 0.115514,-0.004 0.365683,0.0234 c 0.0028,-0.10578 0.118205,-0.32676 0,-0.32676 h -0.03727 c -0.11686,0 -0.03157,0.17306 -0.23092,0.17306 h -0.153911 a 0.10816255,0.10816255 0 0 1 -0.09625,-0.0962 v -0.34602 h 0.288676 c 0.01377,0.0577 0.01104,0.11532 0.07701,0.11532 h 0.03851 c 0.044,0 0.05776,-0.0138 0.05776,-0.0577 v -0.30759 h -0.153913 c -0.0013,0.0907 -0.02754,0.11529 -0.115514,0.11529 h -0.192415 v -0.442063 h 0.173163 a 0.28494882,0.28494882 0 0 1 0.09625,0.01924 c 0.0055,0.0621 0.03301,0.153809 0.09625,0.153809 h 0.01925 c 0.044,0 0.05775,-0.01377 0.05775,-0.05766 v -0.249964 h -0.886623 v 0.115298 z m -13.564722,-0.0383 c 0,0.10433 0.134557,0.02474 0.134557,0.134558 v 0.885688 c 0,0.0701 -0.06044,0.0947 -0.134557,0.0962 v 0.1153 h 0.983296 v -0.0769 c 0,-0.1002 0.0385,-0.11128 0.0385,-0.19221 0,-0.044 -0.01377,-0.0577 -0.05775,-0.0577 h -0.0385 c -0.119552,0 -0.0083,0.17306 -0.250173,0.17306 h -0.134557 c -0.06211,0 -0.09625,-0.0701 -0.09625,-0.13456 v -0.30761 h 0.250171 c 0.107237,0 0.0083,0.1153 0.115514,0.1153 h 0.03778 c 0.04399,0 0.05776,-0.0138 0.05776,-0.0577 v -0.30761 h -0.153916 c -0.0013,0.0907 -0.02754,0.11529 -0.115514,0.11529 H 29.99295 v -0.422916 h 0.269112 c 0.01511,0.06728 0.01646,0.153808 0.09625,0.153808 h 0.01925 c 0.044,0 0.05775,-0.01377 0.05775,-0.05766 l 0.0042,-0.07825 -0.02339,-0.17306 h -0.867371 v 0.0769 z m 8.459242,0.0384 c 0.175959,0.0414 0.134558,0.100185 0.134558,0.308966 0,0.059 0.01511,0.35295 0.02754,0.41609 0.04533,0.24996 0.136108,0.48885 0.416503,0.48885 h 0.211668 c 0.273563,0 0.365682,-0.24717 0.408223,-0.49683 a 1.9207392,1.9207392 0 0 0 0.03436,-0.42706 c 0,-0.418777 0.134558,-0.192204 0.134558,-0.32676 v -0.08105 l -0.23092,0.02339 c -0.09895,0.01104 -0.230919,-0.07245 -0.230919,0.0384 v 0.05735 c 0.0591,0.01377 0.153912,0.02743 0.153912,0.09616 v 0.53822 c 0,0.19666 -0.09212,0.42293 -0.288676,0.42293 -0.300164,0 -0.307926,-0.34054 -0.307926,-0.63573 v -0.326766 c 0,-0.100198 0.153912,-0.05351 0.153912,-0.153807 0,-0.100292 -0.130628,-0.0384 -0.23092,-0.0384 l -0.134558,0.0042 -0.250171,-0.02339 v 0.115299 z m -13.565757,0 0.134558,0.0384 v 0.05766 c 0,0.466906 -0.0083,1.116406 0.442586,1.116406 h 0.211772 c 0.252965,0 0.379345,-0.254 0.406877,-0.49848 a 2.8492812,2.8492812 0 0 0 0.03716,-0.42572 c 0,-0.418777 0.134557,-0.192206 0.134557,-0.326762 v -0.08281 l -0.23092,0.02474 a 2.1461729,2.1461729 0 0 1 -0.230919,-0.01925 v 0.0769 c 0,0.107129 0.153913,0.01924 0.153913,0.134557 v 0.519075 c 0,0.24841 -0.07245,0.44217 -0.327179,0.44217 h -0.01904 c -0.127829,0 -0.158052,-0.1126 -0.210322,-0.1922 l -0.03985,-0.57673 v -0.191798 c 0,-0.06862 0.09625,-0.08281 0.153911,-0.09616 v -0.119444 l -0.288674,0.02194 -0.07701,0.0042 -0.250171,-0.02339 v 0.115312 z m 15.12599,1.000996 c 0,0.0686 -0.06593,0.0756 -0.134557,0.0769 v 0.11529 h 0.461839 v -0.1154 c -0.07008,-10e-4 -0.153911,-0.008 -0.153911,-0.0769 v -0.63573 c 0.126482,0.0453 0.692757,0.82804 0.771111,0.82804 h 0.172438 v -1.097144 c 0,-0.07411 0.07701,-0.09471 0.153912,-0.09616 V 99.64999 l -0.269112,0.02339 c -0.08385,0.0083 -0.09625,-0.01924 -0.192416,-0.01924 v 0.0769 c 0,0.07008 0.04813,0.05766 0.111369,0.0621 l 0.04265,0.03436 v 0.67423 c -0.138801,-0.0932 -0.706525,-0.847291 -0.790364,-0.847291 h -0.173163 z m -13.565758,0.0384 -0.134558,0.0384 v 0.11529 h 0.461115 l -0.0013,-0.10847 -0.152565,-0.0453 0.0028,-0.69483 0.729916,0.84874 h 0.211978 v -1.020143 c 0,-0.151013 0.03436,-0.145528 0.153912,-0.173059 v -0.119444 l -0.211668,0.02339 c -0.07701,0.0097 -0.148425,-0.01925 -0.250171,-0.01925 v 0.0769 c 0,0.07008 0.04813,0.05766 0.111369,0.0621 l 0.04265,0.03436 v 0.674226 c -0.134558,-0.0907 -0.707869,-0.847287 -0.790363,-0.847287 h -0.115608 c -0.101746,0 -0.05776,0.427057 -0.05776,0.539677 v 0.61657 z M 44.67458,99.807831 h 0.09626 c 0.118205,0 0.173163,0.09201 0.173163,0.211459 v 0.0384 c 0,0.15101 -0.109929,0.21146 -0.269113,0.21146 v -0.461217 z m 0.578696,1.193309 h 0.211668 l 0.06873,-0.0274 -0.493511,-0.66461 a 0.34953585,0.34953585 0 0 0 0.230919,-0.30761 c 0,-0.495688 -0.459147,-0.278742 -0.848118,-0.324076 l -0.211668,-0.02194 v 0.115299 c 0.06593,0.0055 0.134558,0.02743 0.134558,0.09616 v 0.885687 c 0,0.0686 -0.06873,0.0907 -0.134558,0.0962 v 0.12079 l 0.307927,-0.0247 c 0.08798,-0.007 0.156706,0.0192 0.269112,0.0192 v -0.11529 c -0.05775,-0.0138 -0.115513,-0.011 -0.115513,-0.0769 v -0.36527 c 0.133319,0.003 0.210321,0.22377 0.269112,0.30896 0.133319,0.19086 0.159502,0.15929 0.307927,0.28836 z M 31.110062,99.807937 h 0.09625 c 0.118205,0 0.173163,0.09202 0.173163,0.211463 v 0.0192 c 0,0.17306 -0.09481,0.23071 -0.269111,0.23071 z m 0.578695,1.193303 h 0.23092 l 0.05175,-0.0289 -0.494339,-0.66336 c 0.08383,-0.0219 0.211666,-0.14283 0.211666,-0.23071 v -0.172955 c 0,-0.363923 -0.515453,-0.201835 -0.790362,-0.226573 l -0.250171,-0.02339 v 0.115406 c 0.05775,0.0055 0.134557,0.0384 0.134557,0.09616 v 0.847292 c 0,0.0962 -0.04534,0.12772 -0.134557,0.13456 v 0.11944 l 0.327179,-0.0219 a 2.2404658,2.2404658 0 0 1 0.250171,0.0192 v -0.1153 c -0.05775,-0.0138 -0.115514,-0.011 -0.115514,-0.0769 v -0.36527 c 0.133319,0.003 0.210322,0.22378 0.269112,0.30896 0.127829,0.18258 0.164988,0.16344 0.309273,0.28837 z m -0.02754,-5.544853 0.639141,-0.0769 0.23651,-1.674088 -0.644731,0.0013 z m -1.01621,0.193554 0.736746,-0.140042 -0.21115,-1.804504 h -0.811064 l 0.28733,1.944443 z m -2.385787,0.61513 0.771111,-0.211461 V 93.705395 H 28.25922 Z m -1.406217,0.480676 0.867372,-0.266422 v -2.754574 h -0.867372 v 3.022341 z m 7.053027,-1.558576 0.905875,-0.0384 c 0,-0.459975 0.514107,-1.103982 0.784876,-1.333349 0.338151,-0.287019 0.914051,-0.610679 1.527214,-0.610679 h 0.07701 c 0.931543,0.127721 1.20552,0.325419 1.927156,0.808787 -0.180095,-0.672778 -1.61788,-1.193304 -2.215828,-1.193304 h -0.07701 c -0.815102,0 -1.547812,0.284224 -1.961521,0.678371 a 3.5421426,3.5421426 0 0 0 -0.60892,0.719565 2.8567335,2.8567335 0 0 0 -0.358747,0.970876 z m 6.666746,0.17306 0.828867,0.09616 V 94.39764 h 0.134558 c 0.34229,0 0.403669,0.274599 0.403669,0.616578 v 0.01924 a 0.6541506,0.6541506 0 0 1 -0.152567,0.490199 l 0.807338,0.163434 c 0.0385,-0.163434 0.153912,-0.314447 0.153912,-0.557476 v -0.288468 c 0,-0.671436 -0.416503,-1.135656 -1.079038,-1.135656 h -1.098389 v 1.656078 z m 3.564294,-0.578385 v 0.115298 a 1.4633515,1.4633515 0 0 0 0.316102,0.858263 c 0.144287,0.196659 0.486473,0.431201 0.589978,0.585009 l 1.212353,0.351917 c 0,-0.439378 -0.367029,-0.765936 -0.658395,-1.058752 -0.191069,-0.192208 -0.727121,-0.55199 -0.727121,-0.870579 0,-0.21146 0.0797,-0.38452 0.288675,-0.38452 h 0.05775 c 0.160847,0 0.269112,0.226572 0.269112,0.365268 v 0.249965 h 0.694207 v -0.403669 c 0,-0.374894 -0.415158,-0.866439 -0.790362,-0.866439 h -0.365673 c -0.452213,0 -0.886622,0.562962 -0.886622,1.058751 z m -12.66268,1.521521 0.07152,-0.0013 -0.03032,0.270458 h -0.01377 l -0.02608,-0.269112 z m -4.21585,0.501377 c -0.318898,0.08374 -2.023417,0.711286 -2.177329,0.848741 l 1.784217,-0.524564 0.0069,0.0207 v 0.134557 c 0,0.36796 0.464634,0.751135 0.848119,0.751135 h 0.326661 c 0.402737,0 0.695553,-0.153808 0.848119,-0.403669 a 1.1099859,1.1099859 0 0 0 0.135178,-0.500238 c 0,-0.103509 0.0013,-0.205975 0,-0.308963 -0.0028,-0.218291 0.0042,-0.10433 0.136109,-0.185377 l 1.584865,-0.236198 0.244687,1.634031 0.9155,-0.0013 0.259797,-1.808436 0.191069,-0.01781 1.561578,-0.118098 c 0.192415,0.83073 0.567725,1.374544 0.882483,1.620368 0.424369,0.331215 1.030908,0.727743 1.775935,0.727743 h 0.403669 c 0.419298,0 0.975948,-0.210116 1.245371,-0.37355 0.202041,-0.123589 0.801334,-0.560271 0.85495,-0.762105 -0.125137,0.08374 -0.218603,0.199143 -0.346432,0.288363 a 3.0244114,3.0244114 0 0 1 -0.398597,0.238062 2.5979715,2.5979715 0 0 1 -1.047469,0.24303 c -0.66802,0 -1.349806,-0.262281 -1.681125,-0.591841 a 2.8105704,2.8105704 0 0 1 -0.523766,-0.61381 c -0.105891,-0.171611 -0.300993,-0.578074 -0.300165,-0.830729 1.934092,-0.03023 3.570917,-0.04947 5.781469,0.129066 l -0.0013,0.0207 v 1.847355 h 0.809614 v -1.751716 l 0.250172,0.0384 0.385969,1.713316 h 0.732578 l -0.367027,-1.615712 a 5.3071071,5.3071071 0 0 1 0.67216,0.07825 c 0.683132,0.07959 2.411041,0.442173 2.411041,0.498479 v 0.01925 c 0,0.199143 -0.09212,0.365269 -0.288674,0.365269 -0.280395,0 -0.347776,-0.284225 -0.34643,-0.503965 l -0.732642,-0.130399 v 0.269113 a 1.32569,1.32569 0 0 0 0.274909,0.726397 c 0.156706,0.185376 0.372617,0.29385 0.70787,0.29385 h 0.288674 c 0.0055,0 0.273564,-0.09316 0.298302,-0.105783 A 0.77742483,0.77742483 0 0 0 45.91158,97.74811 c 0.108569,-0.109821 0.303787,-0.343326 0.303787,-0.543815 l 0.0042,-0.07245 1.20552,0.33639 0.602089,0.179891 c -0.200724,-0.17441 -1.896962,-0.75797 -2.292868,-0.885694 a 22.996395,22.996395 0 0 0 -2.554809,-0.642869 c -2.467348,-0.4902 -4.885429,-0.62755 -7.387037,-0.62755 -0.674955,0 -1.324862,0.05082 -1.946409,0.09616 -2.260338,0.166642 -4.411998,0.641211 -6.58891,1.213904 z"
             fill="#0f75bd"
             fill-rule="evenodd"
             id="path25114"
             style="stroke-width:0.103505" /></g><path
           style="fill:#b8d8f3;fill-opacity:1;stroke:none;stroke-width:0.3;stroke-linecap:round;stroke-linejoin:round;stroke-miterlimit:4.4;stroke-opacity:1;paint-order:markers fill stroke"
           d="m 62.387936,36.481797 -6.68684,7.034213 v -7.207896 z"
           id="path26573" /><text
           xml:space="preserve"
           style="font-size:9.87778px;font-family:sans-serif;-inkscape-font-specification:sans-serif;text-align:end;text-anchor:end;fill:#003461;fill-opacity:1;stroke:none;stroke-width:0.3;stroke-linecap:round;stroke-linejoin:round;stroke-miterlimit:4.4;stroke-opacity:1;paint-order:markers fill stroke"
           x="37.066387"
           y="16.954084"
           id="text29169"><tspan
             sodipodi:role="line"
             id="tspan29167"
             style="font-style:normal;font-variant:normal;font-weight:bold;font-stretch:normal;font-size:9.87778px;font-family:sans-serif;-inkscape-font-specification:'sans-serif Bold';text-align:center;text-anchor:middle;stroke-width:0.3"
             x="37.066387"
             y="16.954084">Tanya</tspan><tspan
             sodipodi:role="line"
             style="font-style:normal;font-variant:normal;font-weight:bold;font-stretch:normal;font-size:9.87778px;font-family:sans-serif;-inkscape-font-specification:'sans-serif Bold';text-align:center;text-anchor:middle;stroke-width:0.3"
             x="37.066387"
             y="29.30131"
             id="tspan29171">Uvers</tspan></text></g></g></g></svg>
