<svg width="34" height="32" viewBox="0 0 34 32" fill="none" xmlns="http://www.w3.org/2000/svg">
<path d="M28.2 20.6C28.7833 19.1833 29.1 17.6667 29.1 16C29.1 14.8 28.9166 13.65 28.6 12.5833C27.5166 12.8333 26.3833 12.9667 25.2 12.9667C22.7766 12.9693 20.3881 12.3892 18.2359 11.2754C16.0836 10.1616 14.2307 8.5466 12.8333 6.56668C11.3385 10.1836 8.51852 13.093 4.94998 14.7C4.88331 15.1167 4.88331 15.5667 4.88331 16C4.88331 17.5912 5.19672 19.1668 5.80564 20.6369C6.41456 22.1069 7.30707 23.4427 8.4322 24.5678C10.7045 26.8401 13.7864 28.1167 17 28.1167C18.75 28.1167 20.4333 27.7333 21.95 27.05C22.9 28.8667 23.3333 29.7667 23.3 29.7667C20.5666 30.6833 18.45 31.1333 17 31.1333C12.9666 31.1333 9.11665 29.55 6.28331 26.7C4.55998 24.982 3.27893 22.8717 2.54998 20.55H0.333313V12.9667H2.14998C2.70038 10.2875 3.9658 7.80736 5.81196 5.78933C7.65812 3.7713 10.0162 2.29069 12.6359 1.50461C15.2556 0.718529 18.0392 0.656299 20.6914 1.32452C23.3436 1.99275 25.7655 3.3665 27.7 5.30001C29.8004 7.3921 31.233 10.0602 31.8166 12.9667H33.6666V20.55H33.5666L27.6333 26L18.8 25V22.2167H26.85L28.2 20.6ZM12.45 15.6167C12.95 15.6167 13.4333 15.8167 13.7833 16.1833C14.1351 16.538 14.3324 17.0172 14.3324 17.5167C14.3324 18.0162 14.1351 18.4954 13.7833 18.85C13.4333 19.2 12.95 19.4 12.45 19.4C11.4 19.4 10.55 18.5667 10.55 17.5167C10.55 16.4667 11.4 15.6167 12.45 15.6167ZM21.5333 15.6167C22.5833 15.6167 23.4166 16.4667 23.4166 17.5167C23.4166 18.5667 22.5833 19.4 21.5333 19.4C20.4833 19.4 19.6333 18.5667 19.6333 17.5167C19.6333 17.0128 19.8335 16.5295 20.1898 16.1732C20.5461 15.8169 21.0294 15.6167 21.5333 15.6167Z" fill="white"/>
</svg>
